<svg width="800" height="520" viewBox="0 0 800 520" xmlns="http://www.w3.org/2000/svg" role="img">
<title>Mariem Ammari — Tech Stack</title>
<desc>A visual overview of Mariem Ammari's technical skills organized by category</desc>

<defs>
  <style>
    @import url('https://fonts.googleapis.com/css2?family=JetBrains+Mono:wght@400;500;600&amp;display=swap');
    text { font-family: 'JetBrains Mono', 'Courier New', monospace; }
  </style>
</defs>

<!-- Background -->
<rect width="800" height="520" rx="14" fill="#07060d"/>

<!-- Subtle top glow -->
<ellipse cx="400" cy="0" rx="300" ry="80" fill="rgba(168,85,247,0.12)"/>

<!-- Glow line top -->
<line x1="40" y1="18" x2="760" y2="18" stroke="url(#gl)" stroke-width="1"/>
<defs>
  <linearGradient id="gl" x1="0%" y1="0%" x2="100%" y2="0%">
    <stop offset="0%" stop-color="transparent"/>
    <stop offset="35%" stop-color="#a855f7" stop-opacity="0.7"/>
    <stop offset="65%" stop-color="#93c5fd" stop-opacity="0.5"/>
    <stop offset="100%" stop-color="transparent"/>
  </linearGradient>
</defs>

<!-- ROW 1 -->
<!-- Frontend -->
<text x="40" y="50" font-size="9" fill="rgba(255,255,255,0.28)" letter-spacing="2" font-weight="500">FRONTEND</text>
<!-- pills -->
<rect x="40" y="58" width="58" height="22" rx="4" fill="rgba(168,85,247,0.09)" stroke="rgba(192,132,252,0.28)" stroke-width="1"/>
<text x="69" y="73" font-size="10" fill="#c084fc" text-anchor="middle" font-weight="500">React</text>

<rect x="104" y="58" width="84" height="22" rx="4" fill="rgba(168,85,247,0.09)" stroke="rgba(192,132,252,0.28)" stroke-width="1"/>
<text x="146" y="73" font-size="10" fill="#c084fc" text-anchor="middle" font-weight="500">Angular 17</text>

<rect x="194" y="58" width="84" height="22" rx="4" fill="rgba(168,85,247,0.09)" stroke="rgba(192,132,252,0.28)" stroke-width="1"/>
<text x="236" y="73" font-size="10" fill="#c084fc" text-anchor="middle" font-weight="500">TypeScript</text>

<rect x="284" y="58" width="86" height="22" rx="4" fill="rgba(168,85,247,0.09)" stroke="rgba(192,132,252,0.28)" stroke-width="1"/>
<text x="327" y="73" font-size="10" fill="#c084fc" text-anchor="middle" font-weight="500">TailwindCSS</text>

<rect x="376" y="58" width="74" height="22" rx="4" fill="rgba(255,255,255,0.03)" stroke="rgba(255,255,255,0.1)" stroke-width="1"/>
<text x="413" y="73" font-size="10" fill="rgba(255,255,255,0.5)" text-anchor="middle" font-weight="500">Bootstrap</text>

<!-- Backend -->
<text x="500" y="50" font-size="9" fill="rgba(255,255,255,0.28)" letter-spacing="2" font-weight="500">BACKEND &amp; APIs</text>
<rect x="500" y="58" width="56" height="22" rx="4" fill="rgba(147,197,253,0.08)" stroke="rgba(147,197,253,0.25)" stroke-width="1"/>
<text x="528" y="73" font-size="10" fill="#93c5fd" text-anchor="middle" font-weight="500">NestJS</text>

<rect x="562" y="58" width="60" height="22" rx="4" fill="rgba(147,197,253,0.08)" stroke="rgba(147,197,253,0.25)" stroke-width="1"/>
<text x="592" y="73" font-size="10" fill="#93c5fd" text-anchor="middle" font-weight="500">Node.js</text>

<rect x="628" y="58" width="84" height="22" rx="4" fill="rgba(147,197,253,0.08)" stroke="rgba(147,197,253,0.25)" stroke-width="1"/>
<text x="670" y="73" font-size="10" fill="#93c5fd" text-anchor="middle" font-weight="500">Spring Boot</text>

<rect x="718" y="58" width="46" height="22" rx="4" fill="rgba(255,255,255,0.03)" stroke="rgba(255,255,255,0.1)" stroke-width="1"/>
<text x="741" y="73" font-size="10" fill="rgba(255,255,255,0.5)" text-anchor="middle" font-weight="500">REST</text>

<!-- Divider -->
<line x1="40" y1="100" x2="760" y2="100" stroke="rgba(255,255,255,0.05)" stroke-width="1"/>

<!-- ROW 2 -->
<!-- Languages -->
<text x="40" y="122" font-size="9" fill="rgba(255,255,255,0.28)" letter-spacing="2" font-weight="500">LANGUAGES</text>
<rect x="40" y="130" width="96" height="22" rx="4" fill="rgba(255,255,255,0.03)" stroke="rgba(255,255,255,0.1)" stroke-width="1"/>
<text x="88" y="145" font-size="10" fill="rgba(255,255,255,0.5)" text-anchor="middle" font-weight="500">JavaScript</text>

<rect x="142" y="130" width="46" height="22" rx="4" fill="rgba(255,255,255,0.03)" stroke="rgba(255,255,255,0.1)" stroke-width="1"/>
<text x="165" y="145" font-size="10" fill="rgba(255,255,255,0.5)" text-anchor="middle" font-weight="500">Java</text>

<rect x="194" y="130" width="58" height="22" rx="4" fill="rgba(255,255,255,0.03)" stroke="rgba(255,255,255,0.1)" stroke-width="1"/>
<text x="223" y="145" font-size="10" fill="rgba(255,255,255,0.5)" text-anchor="middle" font-weight="500">Python</text>

<rect x="258" y="130" width="40" height="22" rx="4" fill="rgba(255,255,255,0.03)" stroke="rgba(255,255,255,0.1)" stroke-width="1"/>
<text x="278" y="145" font-size="10" fill="rgba(255,255,255,0.5)" text-anchor="middle" font-weight="500">C#</text>

<rect x="304" y="130" width="44" height="22" rx="4" fill="rgba(255,255,255,0.03)" stroke="rgba(255,255,255,0.1)" stroke-width="1"/>
<text x="326" y="145" font-size="10" fill="rgba(255,255,255,0.5)" text-anchor="middle" font-weight="500">Dart</text>

<rect x="354" y="130" width="40" height="22" rx="4" fill="rgba(255,255,255,0.03)" stroke="rgba(255,255,255,0.1)" stroke-width="1"/>
<text x="374" y="145" font-size="10" fill="rgba(255,255,255,0.5)" text-anchor="middle" font-weight="500">PHP</text>

<!-- Prior -->
<text x="440" y="122" font-size="9" fill="rgba(255,255,255,0.28)" letter-spacing="2" font-weight="500">PRIOR FRAMEWORKS</text>
<rect x="440" y="130" width="68" height="22" rx="4" fill="rgba(255,255,255,0.03)" stroke="rgba(255,255,255,0.08)" stroke-width="1"/>
<text x="474" y="145" font-size="10" fill="rgba(255,255,255,0.38)" text-anchor="middle" font-weight="500">Symfony</text>

<rect x="514" y="130" width="100" height="22" rx="4" fill="rgba(255,255,255,0.03)" stroke="rgba(255,255,255,0.08)" stroke-width="1"/>
<text x="564" y="145" font-size="10" fill="rgba(255,255,255,0.38)" text-anchor="middle" font-weight="500">ASP.NET Core</text>

<rect x="620" y="130" width="58" height="22" rx="4" fill="rgba(255,255,255,0.03)" stroke="rgba(255,255,255,0.08)" stroke-width="1"/>
<text x="649" y="145" font-size="10" fill="rgba(255,255,255,0.38)" text-anchor="middle" font-weight="500">Flutter</text>

<!-- Divider -->
<line x1="40" y1="172" x2="760" y2="172" stroke="rgba(255,255,255,0.05)" stroke-width="1"/>

<!-- ROW 3 -->
<!-- DevOps -->
<text x="40" y="194" font-size="9" fill="rgba(255,255,255,0.28)" letter-spacing="2" font-weight="500">DEVOPS</text>
<rect x="40" y="202" width="56" height="22" rx="4" fill="rgba(147,197,253,0.08)" stroke="rgba(147,197,253,0.25)" stroke-width="1"/>
<text x="68" y="217" font-size="10" fill="#93c5fd" text-anchor="middle" font-weight="500">Docker</text>

<rect x="102" y="202" width="82" height="22" rx="4" fill="rgba(147,197,253,0.08)" stroke="rgba(147,197,253,0.25)" stroke-width="1"/>
<text x="143" y="217" font-size="10" fill="#93c5fd" text-anchor="middle" font-weight="500">Kubernetes</text>

<rect x="190" y="202" width="64" height="22" rx="4" fill="rgba(147,197,253,0.08)" stroke="rgba(147,197,253,0.25)" stroke-width="1"/>
<text x="222" y="217" font-size="10" fill="#93c5fd" text-anchor="middle" font-weight="500">Jenkins</text>

<rect x="260" y="202" width="76" height="22" rx="4" fill="rgba(147,197,253,0.08)" stroke="rgba(147,197,253,0.25)" stroke-width="1"/>
<text x="298" y="217" font-size="10" fill="#93c5fd" text-anchor="middle" font-weight="500">SonarQube</text>

<!-- Observability merged -->
<text x="380" y="194" font-size="9" fill="rgba(255,255,255,0.28)" letter-spacing="2" font-weight="500">OBSERVABILITY</text>
<rect x="380" y="202" width="66" height="22" rx="4" fill="rgba(251,191,36,0.07)" stroke="rgba(252,211,77,0.22)" stroke-width="1"/>
<text x="413" y="217" font-size="10" fill="#fcd34d" text-anchor="middle" font-weight="500">Grafana</text>

<rect x="452" y="202" width="84" height="22" rx="4" fill="rgba(251,191,36,0.07)" stroke="rgba(252,211,77,0.22)" stroke-width="1"/>
<text x="494" y="217" font-size="10" fill="#fcd34d" text-anchor="middle" font-weight="500">Prometheus</text>

<!-- Design -->
<text x="580" y="194" font-size="9" fill="rgba(255,255,255,0.28)" letter-spacing="2" font-weight="500">DESIGN</text>
<rect x="580" y="202" width="52" height="22" rx="4" fill="rgba(168,85,247,0.09)" stroke="rgba(192,132,252,0.28)" stroke-width="1"/>
<text x="606" y="217" font-size="10" fill="#c084fc" text-anchor="middle" font-weight="500">Figma</text>

<!-- Divider -->
<line x1="40" y1="244" x2="760" y2="244" stroke="rgba(255,255,255,0.05)" stroke-width="1"/>

<!-- ROW 4 -->
<!-- Data & ML -->
<text x="40" y="266" font-size="9" fill="rgba(255,255,255,0.28)" letter-spacing="2" font-weight="500">DATA &amp; ML PIPELINE</text>
<rect x="40" y="274" width="90" height="22" rx="4" fill="rgba(74,222,128,0.07)" stroke="rgba(134,239,172,0.22)" stroke-width="1"/>
<text x="85" y="289" font-size="10" fill="#86efac" text-anchor="middle" font-weight="500">Web Scraping</text>

<rect x="136" y="274" width="106" height="22" rx="4" fill="rgba(74,222,128,0.07)" stroke="rgba(134,239,172,0.22)" stroke-width="1"/>
<text x="189" y="289" font-size="10" fill="#86efac" text-anchor="middle" font-weight="500">Data Processing</text>

<rect x="248" y="274" width="100" height="22" rx="4" fill="rgba(74,222,128,0.07)" stroke="rgba(134,239,172,0.22)" stroke-width="1"/>
<text x="298" y="289" font-size="10" fill="#86efac" text-anchor="middle" font-weight="500">Model Selection</text>

<rect x="354" y="274" width="148" height="22" rx="4" fill="rgba(74,222,128,0.07)" stroke="rgba(134,239,172,0.22)" stroke-width="1"/>
<text x="428" y="289" font-size="10" fill="#86efac" text-anchor="middle" font-weight="500">Hyperparameter Tuning</text>

<rect x="508" y="274" width="84" height="22" rx="4" fill="rgba(255,255,255,0.03)" stroke="rgba(255,255,255,0.1)" stroke-width="1"/>
<text x="550" y="289" font-size="10" fill="rgba(255,255,255,0.5)" text-anchor="middle" font-weight="500">Scikit-learn</text>

<rect x="598" y="274" width="56" height="22" rx="4" fill="rgba(255,255,255,0.03)" stroke="rgba(255,255,255,0.1)" stroke-width="1"/>
<text x="626" y="289" font-size="10" fill="rgba(255,255,255,0.5)" text-anchor="middle" font-weight="500">Pandas</text>

<!-- Divider -->
<line x1="40" y1="316" x2="760" y2="316" stroke="rgba(255,255,255,0.05)" stroke-width="1"/>

<!-- ROW 5 -->
<!-- Databases -->
<text x="40" y="338" font-size="9" fill="rgba(255,255,255,0.28)" letter-spacing="2" font-weight="500">DATABASES</text>
<rect x="40" y="346" width="56" height="22" rx="4" fill="rgba(255,255,255,0.03)" stroke="rgba(255,255,255,0.1)" stroke-width="1"/>
<text x="68" y="361" font-size="10" fill="rgba(255,255,255,0.5)" text-anchor="middle" font-weight="500">MySQL</text>

<rect x="102" y="346" width="72" height="22" rx="4" fill="rgba(255,255,255,0.03)" stroke="rgba(255,255,255,0.1)" stroke-width="1"/>
<text x="138" y="361" font-size="10" fill="rgba(255,255,255,0.5)" text-anchor="middle" font-weight="500">MongoDB</text>

<rect x="180" y="346" width="76" height="22" rx="4" fill="rgba(255,255,255,0.03)" stroke="rgba(255,255,255,0.1)" stroke-width="1"/>
<text x="218" y="361" font-size="10" fill="rgba(255,255,255,0.5)" text-anchor="middle" font-weight="500">SQL Server</text>

<!-- Workflow -->
<text x="310" y="338" font-size="9" fill="rgba(255,255,255,0.28)" letter-spacing="2" font-weight="500">WORKFLOW &amp; COLLABORATION</text>
<rect x="310" y="346" width="36" height="22" rx="4" fill="rgba(255,255,255,0.03)" stroke="rgba(255,255,255,0.1)" stroke-width="1"/>
<text x="328" y="361" font-size="10" fill="rgba(255,255,255,0.5)" text-anchor="middle" font-weight="500">Git</text>

<rect x="352" y="346" width="58" height="22" rx="4" fill="rgba(255,255,255,0.03)" stroke="rgba(255,255,255,0.1)" stroke-width="1"/>
<text x="381" y="361" font-size="10" fill="rgba(255,255,255,0.5)" text-anchor="middle" font-weight="500">GitHub</text>

<rect x="416" y="346" width="54" height="22" rx="4" fill="rgba(147,197,253,0.08)" stroke="rgba(147,197,253,0.22)" stroke-width="1"/>
<text x="443" y="361" font-size="10" fill="#93c5fd" text-anchor="middle" font-weight="500">Scrum</text>

<rect x="476" y="346" width="60" height="22" rx="4" fill="rgba(168,85,247,0.09)" stroke="rgba(192,132,252,0.25)" stroke-width="1"/>
<text x="506" y="361" font-size="10" fill="#c084fc" text-anchor="middle" font-weight="500">Kanban</text>

<rect x="542" y="346" width="120" height="22" rx="4" fill="rgba(255,255,255,0.03)" stroke="rgba(255,255,255,0.08)" stroke-width="1"/>
<text x="602" y="361" font-size="10" fill="rgba(255,255,255,0.38)" text-anchor="middle" font-weight="500">Collaboration Tools</text>

<!-- Divider -->
<line x1="40" y1="388" x2="760" y2="388" stroke="rgba(255,255,255,0.05)" stroke-width="1"/>

<!-- DEVOPS PIPELINE -->
<text x="40" y="410" font-size="9" fill="rgba(255,255,255,0.28)" letter-spacing="2" font-weight="500">DEVOPS PIPELINE</text>

<!-- pipeline steps -->
<rect x="40" y="418" width="68" height="24" rx="4" fill="rgba(168,85,247,0.1)" stroke="rgba(168,85,247,0.3)" stroke-width="1"/>
<text x="74" y="434" font-size="9.5" fill="#c084fc" text-anchor="middle" font-weight="600">Code</text>

<text x="113" y="434" font-size="11" fill="rgba(168,85,247,0.5)" text-anchor="middle">→</text>

<rect x="122" y="418" width="82" height="24" rx="4" fill="rgba(168,85,247,0.1)" stroke="rgba(168,85,247,0.3)" stroke-width="1"/>
<text x="163" y="434" font-size="9.5" fill="#c084fc" text-anchor="middle" font-weight="600">Jenkins CI</text>

<text x="209" y="434" font-size="11" fill="rgba(168,85,247,0.5)" text-anchor="middle">→</text>

<rect x="218" y="418" width="84" height="24" rx="4" fill="rgba(168,85,247,0.1)" stroke="rgba(168,85,247,0.3)" stroke-width="1"/>
<text x="260" y="434" font-size="9.5" fill="#c084fc" text-anchor="middle" font-weight="600">SonarQube</text>

<text x="307" y="434" font-size="11" fill="rgba(168,85,247,0.5)" text-anchor="middle">→</text>

<rect x="316" y="418" width="62" height="24" rx="4" fill="rgba(147,197,253,0.09)" stroke="rgba(147,197,253,0.3)" stroke-width="1"/>
<text x="347" y="434" font-size="9.5" fill="#93c5fd" text-anchor="middle" font-weight="600">Docker</text>

<text x="383" y="434" font-size="11" fill="rgba(147,197,253,0.5)" text-anchor="middle">→</text>

<rect x="392" y="418" width="82" height="24" rx="4" fill="rgba(147,197,253,0.09)" stroke="rgba(147,197,253,0.3)" stroke-width="1"/>
<text x="433" y="434" font-size="9.5" fill="#93c5fd" text-anchor="middle" font-weight="600">Kubernetes</text>

<text x="479" y="434" font-size="11" fill="rgba(147,197,253,0.5)" text-anchor="middle">→</text>

<rect x="488" y="418" width="194" height="24" rx="4" fill="rgba(251,191,36,0.08)" stroke="rgba(252,211,77,0.28)" stroke-width="1"/>
<text x="585" y="434" font-size="9.5" fill="#fcd34d" text-anchor="middle" font-weight="600">Grafana + Prometheus</text>

<!-- Feedback loop arrow -->
<path d="M 682 442 Q 720 462 720 480 Q 720 496 400 496 Q 80 496 80 480 Q 80 462 40 442" fill="none" stroke="rgba(168,85,247,0.25)" stroke-width="1" stroke-dasharray="4,3"/>
<text x="400" y="510" font-size="8.5" fill="rgba(255,255,255,0.2)" text-anchor="middle" letter-spacing="1.5">FEEDBACK &amp; MONITORING</text>

<!-- Bottom glow line -->
<line x1="40" y1="502" x2="760" y2="502" stroke="url(#gl)" stroke-width="1"/>
</svg>
